# xmcd
#
# Track frame offsets: 
#        150
#        14925
#        29114
#        45072
#        55868
#        83114
#        100541
#        118473
#        147241
#        165592
#
# Disc length: 2354 seconds
#
# Revision: 0
# Processed by: cddbd v1.5.2PL0 Copyright (c) Steve Scherf et al.
# Submitted via: ExactAudioCopy v0.99pb5
#
DISCID=8309300a
DTITLE=Blueskillet - Cure These Blues
DYEAR=2009
DGENRE=Blues
TTITLE0=Price Is Too High
TTITLE1=Out All Night
TTITLE2=You've Got A Hold On Me
TTITLE3=Mean Squeeze
TTITLE4=Good Man
TTITLE5=Blues Man
TTITLE6=Recession Blues
TTITLE7=Cure These Blues
TTITLE8=You Can Count On Me
TTITLE9=Misery Loves Company
EXTD=
EXTT0=
EXTT1=
EXTT2=
EXTT3=
EXTT4=
EXTT5=
EXTT6=
EXTT7=
EXTT8=
EXTT9=
PLAYORDER=
